<svg viewBox="0 0 986.13330078125 400" xmlns="http://www.w3.org/2000/svg"><g><g><g><g><g><line x1="49.98400115966797" y1="378.57999897003174" x2="44.98400115966797" y2="378.57999897003174" style="visibility: inherit;" fill="rgb(0, 0, 0)" stroke="rgb(204, 204, 204)" stroke-width="1px"></line><line x1="49.98400115966797" y1="331.2574990987778" x2="44.98400115966797" y2="331.2574990987778" style="visibility: inherit;" fill="rgb(0, 0, 0)" stroke="rgb(204, 204, 204)" stroke-width="1px"></line><line x1="49.98400115966797" y1="283.9349992275238" x2="44.98400115966797" y2="283.9349992275238" style="visibility: inherit;" fill="rgb(0, 0, 0)" stroke="rgb(204, 204, 204)" stroke-width="1px"></line><line x1="49.98400115966797" y1="236.6124993562698" x2="44.98400115966797" y2="236.6124993562698" style="visibility: inherit;" fill="rgb(0, 0, 0)" stroke="rgb(204, 204, 204)" stroke-width="1px"></line><line x1="49.98400115966797" y1="189.2899994850159" x2="44.98400115966797" y2="189.2899994850159" style="visibility: inherit;" fill="rgb(0, 0, 0)" stroke="rgb(204, 204, 204)" stroke-width="1px"></line><line x1="49.98400115966797" y1="141.9674996137619" x2="44.98400115966797" y2="141.9674996137619" style="visibility: inherit;" fill="rgb(0, 0, 0)" stroke="rgb(204, 204, 204)" stroke-width="1px"></line><line x1="49.98400115966797" y1="94.64499974250799" x2="44.98400115966797" y2="94.64499974250799" style="visibility: inherit;" fill="rgb(0, 0, 0)" stroke="rgb(204, 204, 204)" stroke-width="1px"></line><line x1="49.98400115966797" y1="47.322499871254024" x2="44.98400115966797" y2="47.322499871254024" style="visibility: inherit;" fill="rgb(0, 0, 0)" stroke="rgb(204, 204, 204)" stroke-width="1px"></line><line x1="49.98400115966797" y1="0" x2="44.98400115966797" y2="0" style="visibility: inherit;" fill="rgb(0, 0, 0)" stroke="rgb(204, 204, 204)" stroke-width="1px"></line></g><g transform="translate(39.98400115966797, 0)"><text style="text-anchor: end; visibility: hidden; font-family: &quot;Helvetica Neue&quot;, sans-serif; font-size: 12px; font-weight: 200;" x="0" y="378.57999897003174" dx="0em" dy="0.3em" fill="rgb(50, 49, 63)" stroke="none" stroke-width="1px">0.65</text><text style="text-anchor: end; visibility: inherit; font-family: &quot;Helvetica Neue&quot;, sans-serif; font-size: 12px; font-weight: 200;" x="0" y="331.2574990987778" dx="0em" dy="0.3em" fill="rgb(50, 49, 63)" stroke="none" stroke-width="1px">0.7</text><text style="text-anchor: end; visibility: inherit; font-family: &quot;Helvetica Neue&quot;, sans-serif; font-size: 12px; font-weight: 200;" x="0" y="283.9349992275238" dx="0em" dy="0.3em" fill="rgb(50, 49, 63)" stroke="none" stroke-width="1px">0.75</text><text style="text-anchor: end; visibility: inherit; font-family: &quot;Helvetica Neue&quot;, sans-serif; font-size: 12px; font-weight: 200;" x="0" y="236.6124993562698" dx="0em" dy="0.3em" fill="rgb(50, 49, 63)" stroke="none" stroke-width="1px">0.8</text><text style="text-anchor: end; visibility: inherit; font-family: &quot;Helvetica Neue&quot;, sans-serif; font-size: 12px; font-weight: 200;" x="0" y="189.2899994850159" dx="0em" dy="0.3em" fill="rgb(50, 49, 63)" stroke="none" stroke-width="1px">0.85</text><text style="text-anchor: end; visibility: inherit; font-family: &quot;Helvetica Neue&quot;, sans-serif; font-size: 12px; font-weight: 200;" x="0" y="141.9674996137619" dx="0em" dy="0.3em" fill="rgb(50, 49, 63)" stroke="none" stroke-width="1px">0.9</text><text style="text-anchor: end; visibility: inherit; font-family: &quot;Helvetica Neue&quot;, sans-serif; font-size: 12px; font-weight: 200;" x="0" y="94.64499974250799" dx="0em" dy="0.3em" fill="rgb(50, 49, 63)" stroke="none" stroke-width="1px">0.95</text><text style="text-anchor: end; visibility: inherit; font-family: &quot;Helvetica Neue&quot;, sans-serif; font-size: 12px; font-weight: 200;" x="0" y="47.322499871254024" dx="0em" dy="0.3em" fill="rgb(50, 49, 63)" stroke="none" stroke-width="1px">1</text><text style="text-anchor: end; visibility: hidden; font-family: &quot;Helvetica Neue&quot;, sans-serif; font-size: 12px; font-weight: 200;" x="0" y="0" dx="0em" dy="0.3em" fill="rgb(50, 49, 63)" stroke="none" stroke-width="1px">1.05</text></g><line x1="49.98400115966797" y1="0" x2="49.98400115966797" y2="378.57999897003174" fill="rgb(0, 0, 0)" stroke="rgb(204, 204, 204)" stroke-width="1px"></line></g></g><g transform="translate(49, 0)" clip-path="url(#clip_0)"><clipPath id="clip_0"><rect width="936" height="378"></rect></clipPath><g><g><g><line x1="0" y1="0" x2="0" y2="378.57999897003174" fill="rgb(0, 0, 0)" stroke="rgb(60, 60, 60)" stroke-width="1px" opacity="0.25"></line><line x1="85.1044544400302" y1="0" x2="85.1044544400302" y2="378.57999897003174" fill="rgb(0, 0, 0)" stroke="rgb(60, 60, 60)" stroke-width="1px" opacity="0.25"></line><line x1="170.2089088800604" y1="0" x2="170.2089088800604" y2="378.57999897003174" fill="rgb(0, 0, 0)" stroke="rgb(60, 60, 60)" stroke-width="1px" opacity="0.25"></line><line x1="255.31336332009056" y1="0" x2="255.31336332009056" y2="378.57999897003174" fill="rgb(0, 0, 0)" stroke="rgb(60, 60, 60)" stroke-width="1px" opacity="0.25"></line><line x1="340.4178177601208" y1="0" x2="340.4178177601208" y2="378.57999897003174" fill="rgb(0, 0, 0)" stroke="rgb(60, 60, 60)" stroke-width="1px" opacity="0.25"></line><line x1="425.52227220015095" y1="0" x2="425.52227220015095" y2="378.57999897003174" fill="rgb(0, 0, 0)" stroke="rgb(60, 60, 60)" stroke-width="1px" opacity="0.25"></line><line x1="510.6267266401811" y1="0" x2="510.6267266401811" y2="378.57999897003174" fill="rgb(0, 0, 0)" stroke="rgb(60, 60, 60)" stroke-width="1px" opacity="0.25"></line><line x1="595.7311810802113" y1="0" x2="595.7311810802113" y2="378.57999897003174" fill="rgb(0, 0, 0)" stroke="rgb(60, 60, 60)" stroke-width="1px" opacity="0.25"></line><line x1="680.8356355202416" y1="0" x2="680.8356355202416" y2="378.57999897003174" fill="rgb(0, 0, 0)" stroke="rgb(60, 60, 60)" stroke-width="1px" opacity="0.25"></line><line x1="765.9400899602717" y1="0" x2="765.9400899602717" y2="378.57999897003174" fill="rgb(0, 0, 0)" stroke="rgb(60, 60, 60)" stroke-width="1px" opacity="0.25"></line><line x1="851.0445444003019" y1="0" x2="851.0445444003019" y2="378.57999897003174" fill="rgb(0, 0, 0)" stroke="rgb(60, 60, 60)" stroke-width="1px" opacity="0.25"></line><line x1="936.1489988403321" y1="0" x2="936.1489988403321" y2="378.57999897003174" fill="rgb(0, 0, 0)" stroke="rgb(60, 60, 60)" stroke-width="1px" opacity="0.25"></line></g><g><line x1="0" y1="378.57999897003174" x2="936.1489988403321" y2="378.57999897003174" fill="rgb(0, 0, 0)" stroke="rgb(60, 60, 60)" stroke-width="1px" opacity="0.25"></line><line x1="0" y1="331.2574990987778" x2="936.1489988403321" y2="331.2574990987778" fill="rgb(0, 0, 0)" stroke="rgb(60, 60, 60)" stroke-width="1px" opacity="0.25"></line><line x1="0" y1="283.9349992275238" x2="936.1489988403321" y2="283.9349992275238" fill="rgb(0, 0, 0)" stroke="rgb(60, 60, 60)" stroke-width="1px" opacity="0.25"></line><line x1="0" y1="236.6124993562698" x2="936.1489988403321" y2="236.6124993562698" fill="rgb(0, 0, 0)" stroke="rgb(60, 60, 60)" stroke-width="1px" opacity="0.25"></line><line x1="0" y1="189.2899994850159" x2="936.1489988403321" y2="189.2899994850159" fill="rgb(0, 0, 0)" stroke="rgb(60, 60, 60)" stroke-width="1px" opacity="0.25"></line><line x1="0" y1="141.9674996137619" x2="936.1489988403321" y2="141.9674996137619" fill="rgb(0, 0, 0)" stroke="rgb(60, 60, 60)" stroke-width="1px" opacity="0.25"></line><line x1="0" y1="94.64499974250799" x2="936.1489988403321" y2="94.64499974250799" fill="rgb(0, 0, 0)" stroke="rgb(60, 60, 60)" stroke-width="1px" opacity="0.25"></line><line x1="0" y1="47.322499871254024" x2="936.1489988403321" y2="47.322499871254024" fill="rgb(0, 0, 0)" stroke="rgb(60, 60, 60)" stroke-width="1px" opacity="0.25"></line><line x1="0" y1="0" x2="936.1489988403321" y2="0" fill="rgb(0, 0, 0)" stroke="rgb(60, 60, 60)" stroke-width="1px" opacity="0.25"></line></g></g></g><g><g><line x1="0" y1="993.7724972963333" x2="936.1489988403321" y2="993.7724972963333" fill="rgb(0, 0, 0)" stroke="rgb(153, 153, 153)" stroke-width="1.5px"></line></g></g><g><g><line x1="85.1044544400302" y1="0" x2="85.1044544400302" y2="378.57999897003174" fill="rgb(0, 0, 0)" stroke="rgb(153, 153, 153)" stroke-width="1.5px"></line></g></g><g><g><g><g><g><path style="fill: none;" stroke="rgb(51, 187, 238)" stroke-width="2px" d="M85.1044544400302,230.3376905617958L127.65668166004528,209.4216800511542L170.2089088800604,162.36064229900663L212.76113610007548,130.98659832663628L255.31336332009056,94.3835376234016L297.86559054010564,110.07058781599471L340.4178177601208,89.15452089253722L382.97004498013587,136.21561505750066L425.52227220015095,94.3835376234016L468.07449942016603,104.84157108513034L510.6267266401811,94.3835376234016L553.1789538601962,89.15452089253722L595.7311810802113,110.07058781599471L638.2834083002264,110.07058781599471L680.8356355202416,141.44457537554914L723.3878627402565,120.52856486490754L765.9400899602717,110.07058781599471L808.4923171802868,110.07058781599471L851.0445444003019,110.07058781599471L893.596771620317,99.61255435426597" fill="none"></path></g><g><path style="fill: none;" stroke="rgb(204, 51, 17)" stroke-width="2px" d="M85.1044544400302,403.475899794319L127.65668166004528,244.86269315978447L170.2089088800604,207.0976412747612L212.76113610007548,181.5336660369654L255.31336332009056,147.83558328820206L297.86559054010564,143.18761856104786L340.4178177601208,114.13755695225461L382.97004498013587,113.55656136136037L425.52227220015095,106.00356226691889L468.07449942016603,101.35554112694876L510.6267266401811,92.05955525982449L553.1789538601962,77.53455266183579L595.7311810802113,84.50655616538302L638.2834083002264,77.53455266183579L680.8356355202416,69.98149715457845L723.3878627402565,67.65751479100135L765.9400899602717,56.03749014748405L808.4923171802868,87.41153411985437L851.0445444003019,69.98149715457845L893.596771620317,50.22747782572537" fill="none"></path></g><g><path style="fill: none;" stroke="rgb(0, 153, 136)" stroke-width="2px" d="M85.1044544400302,246.02468434157302L127.65668166004528,183.27665280964823L170.2089088800604,167.5896026170551L212.76113610007548,204.19266332028982L255.31336332009056,188.5056695405126L297.86559054010564,141.44457537554914L340.4178177601208,167.5896026170551L382.97004498013587,136.21561505750066L425.52227220015095,136.21561505750066L468.07449942016603,162.36064229900663L510.6267266401811,146.6735921064135L553.1789538601962,193.73462985856108L595.7311810802113,130.98659832663628L638.2834083002264,141.44457537554914L680.8356355202416,157.13162556814225L723.3878627402565,162.36064229900663L765.9400899602717,146.6735921064135L808.4923171802868,146.6735921064135L851.0445444003019,172.81861934791948L893.596771620317,146.6735921064135" fill="none"></path></g><g><path style="fill: none;" stroke="rgb(238, 51, 119)" stroke-width="2px" d="M85.1044544400302,427.29688825943197L127.65668166004528,253.5777398488304L170.2089088800604,205.35465450207838L212.76113610007548,201.28768536581845L255.31336332009056,164.68462466258373L297.86559054010564,149.57862647370078L340.4178177601208,151.3216132463836L382.97004498013587,133.89157628110766L425.52227220015095,123.43359923219481L468.07449942016603,107.74654903960169L510.6267266401811,117.62358691043619L553.1789538601962,102.51753230873732L595.7311810802113,97.86956758158311L638.2834083002264,101.35554112694876L680.8356355202416,100.77454553605452L723.3878627402565,71.72454034007717L765.9400899602717,78.1155482527301L808.4923171802868,81.02052620720144L851.0445444003019,81.60152179809575L893.596771620317,85.08755175627726" fill="none"></path></g><g><path style="fill: none;" stroke="rgb(0, 119, 187)" stroke-width="2px" d="M85.1044544400302,193.73462985856108L127.65668166004528,183.27665280964823L170.2089088800604,136.21561505750066L212.76113610007548,130.98659832663628L255.31336332009056,89.15452089253722L297.86559054010564,99.61255435426597L340.4178177601208,110.07058781599471L382.97004498013587,125.75758159577191L425.52227220015095,162.36064229900663L468.07449942016603,209.4216800511542L510.6267266401811,99.61255435426597L553.1789538601962,120.52856486490754L595.7311810802113,120.52856486490754L638.2834083002264,83.92556057448871L680.8356355202416,115.29954813404316L723.3878627402565,104.84157108513034L765.9400899602717,99.61255435426597L808.4923171802868,115.29954813404316L851.0445444003019,120.52856486490754L893.596771620317,99.61255435426597" fill="none"></path></g><g><path style="fill: none;" stroke="rgb(255, 112, 67)" stroke-width="2px" d="M85.1044544400302,400.5708654270317L127.65668166004528,246.02468434157302L170.2089088800604,184.43864399143678L212.76113610007548,151.3216132463836L255.31336332009056,137.95860183018348L297.86559054010564,124.59559041398336L340.4178177601208,118.20458250133044L382.97004498013587,92.05955525982449L425.52227220015095,97.28857199068887L468.07449942016603,95.54552880519014L510.6267266401811,74.04852270365427L553.1789538601962,71.14354474918287L595.7311810802113,57.19953774208847L638.2834083002264,86.83053852896012L680.8356355202416,64.75253683652994L723.3878627402565,61.26650687834842L765.9400899602717,56.6184857383783L808.4923171802868,51.97052101122409L851.0445444003019,90.89756407803594L893.596771620317,49.646482234831126" fill="none"></path></g><g><path style="fill: none;" stroke="rgb(187, 187, 187)" stroke-width="2px" d="M85.1044544400302,214.65069678201857L127.65668166004528,193.73462985856108L170.2089088800604,157.13162556814225L212.76113610007548,157.13162556814225L255.31336332009056,188.5056695405126L297.86559054010564,193.73462985856108L340.4178177601208,141.44457537554914L382.97004498013587,146.6735921064135L425.52227220015095,183.27665280964823L468.07449942016603,141.44457537554914L510.6267266401811,151.90260883727788L553.1789538601962,157.13162556814225L595.7311810802113,141.44457537554914L638.2834083002264,120.52856486490754L680.8356355202416,125.75758159577191L723.3878627402565,130.98659832663628L765.9400899602717,120.52856486490754L808.4923171802868,130.98659832663628L851.0445444003019,162.36064229900663L893.596771620317,183.27665280964823" fill="none"></path></g><g><path style="fill: none;" stroke="rgb(0, 153, 136)" stroke-width="2px" d="M85.1044544400302,349.4428021258083L127.65668166004528,239.6336764289201L170.2089088800604,195.4776730440598L212.76113610007548,172.81861934791948L255.31336332009056,144.3496097428364L297.86559054010564,142.60662297015358L340.4178177601208,122.27155163759039L382.97004498013587,87.41153411985437L425.52227220015095,104.84157108513034L468.07449942016603,81.60152179809575L510.6267266401811,75.21051388544282L553.1789538601962,72.88653152186572L595.7311810802113,78.69654384362434L638.2834083002264,75.79150947633707L680.8356355202416,68.8195059727899L723.3878627402565,61.26650687834842L765.9400899602717,73.46752711275997L808.4923171802868,54.8754989656955L851.0445444003019,51.389525420329846L893.596771620317,77.53455266183579" fill="none"></path></g><g><path style="fill: none;" stroke="rgb(238, 51, 119)" stroke-width="2px" d="M85.1044544400302,272.169711583079L127.65668166004528,329.6887827969553L170.2089088800604,314.00178901717806L212.76113610007548,209.4216800511542L255.31336332009056,183.27665280964823L297.86559054010564,167.5896026170551L340.4178177601208,193.73462985856108L382.97004498013587,172.81861934791948L425.52227220015095,130.98659832663628L468.07449942016603,136.21561505750066L510.6267266401811,198.96364658942545L553.1789538601962,162.36064229900663L595.7311810802113,141.44457537554914L638.2834083002264,141.44457537554914L680.8356355202416,125.75758159577191L723.3878627402565,136.21561505750066L765.9400899602717,125.75758159577191L808.4923171802868,125.75758159577191L851.0445444003019,130.98659832663628L893.596771620317,136.21561505750066" fill="none"></path></g><g><path style="fill: none;" stroke="rgb(51, 187, 238)" stroke-width="2px" d="M85.1044544400302,449.374946364678L127.65668166004528,316.32577138075516L170.2089088800604,308.19177669541943L212.76113610007548,257.06371339419604L255.31336332009056,219.87965710006705L297.86559054010564,198.96364658942545L340.4178177601208,170.49463698434238L382.97004498013587,160.6175991135079L425.52227220015095,139.7015886028663L468.07449942016603,126.91957277756046L510.6267266401811,112.39457017957182L553.1789538601962,112.39457017957182L595.7311810802113,99.61255435426597L638.2834083002264,89.15452089253722L680.8356355202416,89.73551648343147L723.3878627402565,80.4395306163072L765.9400899602717,72.88653152186572L808.4923171802868,74.04852270365427L851.0445444003019,87.41153411985437L893.596771620317,68.2385103818956" fill="none"></path></g><g><path style="fill: none;" stroke="rgb(204, 51, 17)" stroke-width="2px" d="M85.1044544400302,334.9177995278197L127.65668166004528,314.00178901717806L170.2089088800604,293.0857785065365L212.76113610007548,214.65069678201857L255.31336332009056,209.4216800511542L297.86559054010564,209.4216800511542L340.4178177601208,157.13162556814225L382.97004498013587,157.13162556814225L425.52227220015095,204.19266332028982L468.07449942016603,209.4216800511542L510.6267266401811,198.96364658942545L553.1789538601962,167.5896026170551L595.7311810802113,157.13162556814225L638.2834083002264,178.04763607878385L680.8356355202416,157.13162556814225L723.3878627402565,151.90260883727788L765.9400899602717,162.36064229900663L808.4923171802868,141.44457537554914L851.0445444003019,146.6735921064135L893.596771620317,188.5056695405126" fill="none"></path></g><g><path style="fill: none;" stroke="rgb(0, 119, 187)" stroke-width="2px" d="M85.1044544400302,416.83891121051914L127.65668166004528,315.7447757898609L170.2089088800604,290.76173973014346L212.76113610007548,243.11970638710164L255.31336332009056,213.48864918741413L297.86559054010564,192.57263867677253L340.4178177601208,173.98061052970803L382.97004498013587,158.87461234082508L425.52227220015095,144.93060533373068L468.07449942016603,130.405602735742L510.6267266401811,120.52856486490754L553.1789538601962,120.52856486490754L595.7311810802113,116.46159572864764L638.2834083002264,102.51753230873732L680.8356355202416,100.19354994516021L723.3878627402565,85.08755175627726L765.9400899602717,83.92556057448871L808.4923171802868,71.14354474918287L851.0445444003019,76.37250506723137L893.596771620317,80.4395306163072" fill="none"></path></g><g><path style="fill: none;" stroke="rgb(255, 112, 67)" stroke-width="2px" d="M85.1044544400302,340.14681625868405L127.65668166004528,272.169711583079L170.2089088800604,308.7727722863137L212.76113610007548,225.10867383093142L255.31336332009056,261.7117345341661L297.86559054010564,214.65069678201857L340.4178177601208,251.25370107243737L382.97004498013587,198.96364658942545L425.52227220015095,209.4216800511542L468.07449942016603,151.90260883727788L510.6267266401811,178.04763607878385L553.1789538601962,188.5056695405126L595.7311810802113,183.27665280964823L638.2834083002264,162.36064229900663L680.8356355202416,188.5056695405126L723.3878627402565,157.13162556814225L765.9400899602717,151.90260883727788L808.4923171802868,141.44457537554914L851.0445444003019,188.5056695405126L893.596771620317,130.98659832663628" fill="none"></path></g><g><path style="fill: none;" stroke="rgb(187, 187, 187)" stroke-width="2px" d="M85.1044544400302,451.6989287282551L127.65668166004528,330.26977838784956L170.2089088800604,312.25880224449526L212.76113610007548,281.4657538630192L255.31336332009056,237.309694065343L297.86559054010564,222.78469146735432L340.4178177601208,224.52767824003715L382.97004498013587,197.22065981674263L425.52227220015095,190.24865631319543L468.07449942016603,183.27665280964823L510.6267266401811,157.13162556814225L553.1789538601962,158.2936167499308L595.7311810802113,152.48360442817216L638.2834083002264,154.22659120085498L680.8356355202416,131.56759391753056L723.3878627402565,122.85260364130053L765.9400899602717,124.59559041398336L808.4923171802868,107.74654903960169L851.0445444003019,111.23257899778326L893.596771620317,101.93653671784307" fill="none"></path></g><g><path style="fill: none;" stroke="rgb(0, 153, 136)" stroke-width="2px" d="M85.1044544400302,334.9177995278197L127.65668166004528,277.39872831394337L170.2089088800604,266.9407512650305L212.76113610007548,225.10867383093142L255.31336332009056,209.4216800511542L297.86559054010564,146.6735921064135L340.4178177601208,230.3376905617958L382.97004498013587,167.5896026170551L425.52227220015095,193.73462985856108L468.07449942016603,204.19266332028982L510.6267266401811,198.96364658942545L553.1789538601962,167.5896026170551L595.7311810802113,151.90260883727788L638.2834083002264,157.13162556814225L680.8356355202416,146.6735921064135L723.3878627402565,167.5896026170551L765.9400899602717,157.13162556814225L808.4923171802868,167.5896026170551L851.0445444003019,141.44457537554914L893.596771620317,183.27665280964823" fill="none"></path></g><g><path style="fill: none;" stroke="rgb(238, 51, 119)" stroke-width="2px" d="M85.1044544400302,419.16289357409624L127.65668166004528,301.8007687827665L170.2089088800604,257.6447089850903L212.76113610007548,215.81268796380712L255.31336332009056,161.77964670811235L297.86559054010564,154.80758679174926L340.4178177601208,114.71855254314892L382.97004498013587,106.00356226691889L425.52227220015095,85.66854734717157L468.07449942016603,78.69654384362434L510.6267266401811,74.62951829454852L553.1789538601962,58.94252451477132L595.7311810802113,89.15452089253722L638.2834083002264,63.00949365103122L680.8356355202416,55.456494556589746L723.3878627402565,55.456494556589746L765.9400899602717,50.22747782572537L808.4923171802868,47.322499871254024L851.0445444003019,57.78053333298277L893.596771620317,91.47855966893019" fill="none"></path></g><g><path style="fill: none;" stroke="rgb(51, 187, 238)" stroke-width="2px" d="M127.65668166004528,434.2688917629792L170.2089088800604,261.7117345341661L212.76113610007548,193.73462985856108L255.31336332009056,193.73462985856108L297.86559054010564,183.27665280964823L340.4178177601208,188.5056695405126L382.97004498013587,219.87965710006705L425.52227220015095,162.36064229900663L468.07449942016603,188.5056695405126L510.6267266401811,198.96364658942545L553.1789538601962,198.96364658942545L595.7311810802113,183.27665280964823L638.2834083002264,193.73462985856108L680.8356355202416,198.96364658942545L723.3878627402565,193.73462985856108L765.9400899602717,178.04763607878385L808.4923171802868,204.19266332028982L851.0445444003019,209.4216800511542L893.596771620317,188.5056695405126" fill="none"></path></g><g><path style="fill: none;" stroke="rgb(204, 51, 17)" stroke-width="2px" d="M127.65668166004528,465.6429357353495L170.2089088800604,302.38176437366076L212.76113610007548,228.59470378911297L255.31336332009056,218.13667032738422L297.86559054010564,201.28768536581845L340.4178177601208,181.5336660369654L382.97004498013587,173.98061052970803L425.52227220015095,156.55062997724798L468.07449942016603,154.22659120085498L510.6267266401811,138.53959742107776L553.1789538601962,121.10956045580184L595.7311810802113,122.85260364130053L638.2834083002264,117.04259131954188L680.8356355202416,94.96453321429584L723.3878627402565,96.12652439608439L765.9400899602717,106.58455785781314L808.4923171802868,82.7635129798843L851.0445444003019,83.92556057448871L893.596771620317,83.92556057448871" fill="none"></path></g><g><path style="fill: none;" stroke="rgb(0, 119, 187)" stroke-width="2px" d="M85.1044544400302,293.0857785065365L127.65668166004528,246.02468434157302L170.2089088800604,219.87965710006705L212.76113610007548,219.87965710006705L255.31336332009056,178.04763607878385L297.86559054010564,172.81861934791948L340.4178177601208,204.19266332028982L382.97004498013587,172.81861934791948L425.52227220015095,183.27665280964823L468.07449942016603,214.65069678201857L510.6267266401811,178.04763607878385L553.1789538601962,193.73462985856108L595.7311810802113,251.25370107243737L638.2834083002264,198.96364658942545L680.8356355202416,167.5896026170551L723.3878627402565,214.65069678201857L765.9400899602717,172.81861934791948L808.4923171802868,172.81861934791948L851.0445444003019,167.5896026170551L893.596771620317,167.5896026170551" fill="none"></path></g><g><path style="fill: none;" stroke="rgb(255, 112, 67)" stroke-width="2px" d="M85.1044544400302,385.46486723814877L127.65668166004528,293.0857785065365L170.2089088800604,258.2257045759846L212.76113610007548,218.13667032738422L255.31336332009056,175.72365371520675L297.86559054010564,142.0256273792593L340.4178177601208,111.23257899778326L382.97004498013587,101.93653671784307L425.52227220015095,85.08755175627726L468.07449942016603,79.85853502541289L510.6267266401811,71.14354474918287L553.1789538601962,64.75253683652994L595.7311810802113,72.30553593097142L638.2834083002264,81.02052620720144L680.8356355202416,58.94252451477132L723.3878627402565,51.97052101122409L765.9400899602717,51.389525420329846L808.4923171802868,76.95355707094154L851.0445444003019,52.5515166021184L893.596771620317,48.484491053042575" fill="none"></path></g></g></g></g></g></g><g transform="translate(49, 378)" clip-path="url(#clip_1)"><clipPath id="clip_1"><rect width="936" height="21"></rect></clipPath><g><g><line x1="0" y1="0" x2="0" y2="5" style="visibility: inherit;" fill="rgb(0, 0, 0)" stroke="rgb(204, 204, 204)" stroke-width="1px"></line><line x1="85.1044544400302" y1="0" x2="85.1044544400302" y2="5" style="visibility: inherit;" fill="rgb(0, 0, 0)" stroke="rgb(204, 204, 204)" stroke-width="1px"></line><line x1="170.2089088800604" y1="0" x2="170.2089088800604" y2="5" style="visibility: inherit;" fill="rgb(0, 0, 0)" stroke="rgb(204, 204, 204)" stroke-width="1px"></line><line x1="255.31336332009056" y1="0" x2="255.31336332009056" y2="5" style="visibility: inherit;" fill="rgb(0, 0, 0)" stroke="rgb(204, 204, 204)" stroke-width="1px"></line><line x1="340.4178177601208" y1="0" x2="340.4178177601208" y2="5" style="visibility: inherit;" fill="rgb(0, 0, 0)" stroke="rgb(204, 204, 204)" stroke-width="1px"></line><line x1="425.52227220015095" y1="0" x2="425.52227220015095" y2="5" style="visibility: inherit;" fill="rgb(0, 0, 0)" stroke="rgb(204, 204, 204)" stroke-width="1px"></line><line x1="510.6267266401811" y1="0" x2="510.6267266401811" y2="5" style="visibility: inherit;" fill="rgb(0, 0, 0)" stroke="rgb(204, 204, 204)" stroke-width="1px"></line><line x1="595.7311810802113" y1="0" x2="595.7311810802113" y2="5" style="visibility: inherit;" fill="rgb(0, 0, 0)" stroke="rgb(204, 204, 204)" stroke-width="1px"></line><line x1="680.8356355202416" y1="0" x2="680.8356355202416" y2="5" style="visibility: inherit;" fill="rgb(0, 0, 0)" stroke="rgb(204, 204, 204)" stroke-width="1px"></line><line x1="765.9400899602717" y1="0" x2="765.9400899602717" y2="5" style="visibility: inherit;" fill="rgb(0, 0, 0)" stroke="rgb(204, 204, 204)" stroke-width="1px"></line><line x1="851.0445444003019" y1="0" x2="851.0445444003019" y2="5" style="visibility: inherit;" fill="rgb(0, 0, 0)" stroke="rgb(204, 204, 204)" stroke-width="1px"></line><line x1="936.1489988403321" y1="0" x2="936.1489988403321" y2="5" style="visibility: inherit;" fill="rgb(0, 0, 0)" stroke="rgb(204, 204, 204)" stroke-width="1px"></line></g><g transform="translate(0, 8)"><text style="text-anchor: middle; visibility: hidden; font-family: &quot;Helvetica Neue&quot;, sans-serif; font-size: 12px; font-weight: 200;" x="0" y="0" dx="0em" dy="0.95em" fill="rgb(50, 49, 63)" stroke="none" stroke-width="1px">-2</text><text style="text-anchor: middle; visibility: inherit; font-family: &quot;Helvetica Neue&quot;, sans-serif; font-size: 12px; font-weight: 200;" x="85.1044544400302" y="0" dx="0em" dy="0.95em" fill="rgb(50, 49, 63)" stroke="none" stroke-width="1px">0</text><text style="text-anchor: middle; visibility: inherit; font-family: &quot;Helvetica Neue&quot;, sans-serif; font-size: 12px; font-weight: 200;" x="170.2089088800604" y="0" dx="0em" dy="0.95em" fill="rgb(50, 49, 63)" stroke="none" stroke-width="1px">2</text><text style="text-anchor: middle; visibility: inherit; font-family: &quot;Helvetica Neue&quot;, sans-serif; font-size: 12px; font-weight: 200;" x="255.31336332009056" y="0" dx="0em" dy="0.95em" fill="rgb(50, 49, 63)" stroke="none" stroke-width="1px">4</text><text style="text-anchor: middle; visibility: inherit; font-family: &quot;Helvetica Neue&quot;, sans-serif; font-size: 12px; font-weight: 200;" x="340.4178177601208" y="0" dx="0em" dy="0.95em" fill="rgb(50, 49, 63)" stroke="none" stroke-width="1px">6</text><text style="text-anchor: middle; visibility: inherit; font-family: &quot;Helvetica Neue&quot;, sans-serif; font-size: 12px; font-weight: 200;" x="425.52227220015095" y="0" dx="0em" dy="0.95em" fill="rgb(50, 49, 63)" stroke="none" stroke-width="1px">8</text><text style="text-anchor: middle; visibility: inherit; font-family: &quot;Helvetica Neue&quot;, sans-serif; font-size: 12px; font-weight: 200;" x="510.6267266401811" y="0" dx="0em" dy="0.95em" fill="rgb(50, 49, 63)" stroke="none" stroke-width="1px">10</text><text style="text-anchor: middle; visibility: inherit; font-family: &quot;Helvetica Neue&quot;, sans-serif; font-size: 12px; font-weight: 200;" x="595.7311810802113" y="0" dx="0em" dy="0.95em" fill="rgb(50, 49, 63)" stroke="none" stroke-width="1px">12</text><text style="text-anchor: middle; visibility: inherit; font-family: &quot;Helvetica Neue&quot;, sans-serif; font-size: 12px; font-weight: 200;" x="680.8356355202416" y="0" dx="0em" dy="0.95em" fill="rgb(50, 49, 63)" stroke="none" stroke-width="1px">14</text><text style="text-anchor: middle; visibility: inherit; font-family: &quot;Helvetica Neue&quot;, sans-serif; font-size: 12px; font-weight: 200;" x="765.9400899602717" y="0" dx="0em" dy="0.95em" fill="rgb(50, 49, 63)" stroke="none" stroke-width="1px">16</text><text style="text-anchor: middle; visibility: inherit; font-family: &quot;Helvetica Neue&quot;, sans-serif; font-size: 12px; font-weight: 200;" x="851.0445444003019" y="0" dx="0em" dy="0.95em" fill="rgb(50, 49, 63)" stroke="none" stroke-width="1px">18</text><text style="text-anchor: middle; visibility: hidden; font-family: &quot;Helvetica Neue&quot;, sans-serif; font-size: 12px; font-weight: 200;" x="936.1489988403321" y="0" dx="0em" dy="0.95em" fill="rgb(50, 49, 63)" stroke="none" stroke-width="1px">20</text></g><line x1="0" y1="0" x2="936.1489988403321" y2="0" fill="rgb(0, 0, 0)" stroke="rgb(204, 204, 204)" stroke-width="1px"></line></g></g></g></g></svg>