<svg viewBox="0 0 986.13330078125 400" xmlns="http://www.w3.org/2000/svg"><g><g><g><g><g><line x1="49.98400115966797" y1="378.57999897003174" x2="44.98400115966797" y2="378.57999897003174" style="visibility: inherit;" fill="rgb(0, 0, 0)" stroke="rgb(204, 204, 204)" stroke-width="1px"></line><line x1="49.98400115966797" y1="340.72199907302854" x2="44.98400115966797" y2="340.72199907302854" style="visibility: inherit;" fill="rgb(0, 0, 0)" stroke="rgb(204, 204, 204)" stroke-width="1px"></line><line x1="49.98400115966797" y1="302.8639991760254" x2="44.98400115966797" y2="302.8639991760254" style="visibility: inherit;" fill="rgb(0, 0, 0)" stroke="rgb(204, 204, 204)" stroke-width="1px"></line><line x1="49.98400115966797" y1="265.0059992790222" x2="44.98400115966797" y2="265.0059992790222" style="visibility: inherit;" fill="rgb(0, 0, 0)" stroke="rgb(204, 204, 204)" stroke-width="1px"></line><line x1="49.98400115966797" y1="227.14799938201904" x2="44.98400115966797" y2="227.14799938201904" style="visibility: inherit;" fill="rgb(0, 0, 0)" stroke="rgb(204, 204, 204)" stroke-width="1px"></line><line x1="49.98400115966797" y1="189.28999948501587" x2="44.98400115966797" y2="189.28999948501587" style="visibility: inherit;" fill="rgb(0, 0, 0)" stroke="rgb(204, 204, 204)" stroke-width="1px"></line><line x1="49.98400115966797" y1="151.4319995880127" x2="44.98400115966797" y2="151.4319995880127" style="visibility: inherit;" fill="rgb(0, 0, 0)" stroke="rgb(204, 204, 204)" stroke-width="1px"></line><line x1="49.98400115966797" y1="113.57399969100953" x2="44.98400115966797" y2="113.57399969100953" style="visibility: inherit;" fill="rgb(0, 0, 0)" stroke="rgb(204, 204, 204)" stroke-width="1px"></line><line x1="49.98400115966797" y1="75.7159997940064" x2="44.98400115966797" y2="75.7159997940064" style="visibility: inherit;" fill="rgb(0, 0, 0)" stroke="rgb(204, 204, 204)" stroke-width="1px"></line><line x1="49.98400115966797" y1="37.85799989700314" x2="44.98400115966797" y2="37.85799989700314" style="visibility: inherit;" fill="rgb(0, 0, 0)" stroke="rgb(204, 204, 204)" stroke-width="1px"></line><line x1="49.98400115966797" y1="0" x2="44.98400115966797" y2="0" style="visibility: inherit;" fill="rgb(0, 0, 0)" stroke="rgb(204, 204, 204)" stroke-width="1px"></line></g><g transform="translate(39.98400115966797, 0)"><text style="text-anchor: end; visibility: hidden; font-family: &quot;Helvetica Neue&quot;, sans-serif; font-size: 12px; font-weight: 200;" x="0" y="378.57999897003174" dx="0em" dy="0.3em" fill="rgb(50, 49, 63)" stroke="none" stroke-width="1px">-0.1</text><text style="text-anchor: end; visibility: inherit; font-family: &quot;Helvetica Neue&quot;, sans-serif; font-size: 12px; font-weight: 200;" x="0" y="340.72199907302854" dx="0em" dy="0.3em" fill="rgb(50, 49, 63)" stroke="none" stroke-width="1px">0</text><text style="text-anchor: end; visibility: inherit; font-family: &quot;Helvetica Neue&quot;, sans-serif; font-size: 12px; font-weight: 200;" x="0" y="302.8639991760254" dx="0em" dy="0.3em" fill="rgb(50, 49, 63)" stroke="none" stroke-width="1px">0.1</text><text style="text-anchor: end; visibility: inherit; font-family: &quot;Helvetica Neue&quot;, sans-serif; font-size: 12px; font-weight: 200;" x="0" y="265.0059992790222" dx="0em" dy="0.3em" fill="rgb(50, 49, 63)" stroke="none" stroke-width="1px">0.2</text><text style="text-anchor: end; visibility: inherit; font-family: &quot;Helvetica Neue&quot;, sans-serif; font-size: 12px; font-weight: 200;" x="0" y="227.14799938201904" dx="0em" dy="0.3em" fill="rgb(50, 49, 63)" stroke="none" stroke-width="1px">0.3</text><text style="text-anchor: end; visibility: inherit; font-family: &quot;Helvetica Neue&quot;, sans-serif; font-size: 12px; font-weight: 200;" x="0" y="189.28999948501587" dx="0em" dy="0.3em" fill="rgb(50, 49, 63)" stroke="none" stroke-width="1px">0.4</text><text style="text-anchor: end; visibility: inherit; font-family: &quot;Helvetica Neue&quot;, sans-serif; font-size: 12px; font-weight: 200;" x="0" y="151.4319995880127" dx="0em" dy="0.3em" fill="rgb(50, 49, 63)" stroke="none" stroke-width="1px">0.5</text><text style="text-anchor: end; visibility: inherit; font-family: &quot;Helvetica Neue&quot;, sans-serif; font-size: 12px; font-weight: 200;" x="0" y="113.57399969100953" dx="0em" dy="0.3em" fill="rgb(50, 49, 63)" stroke="none" stroke-width="1px">0.6</text><text style="text-anchor: end; visibility: inherit; font-family: &quot;Helvetica Neue&quot;, sans-serif; font-size: 12px; font-weight: 200;" x="0" y="75.7159997940064" dx="0em" dy="0.3em" fill="rgb(50, 49, 63)" stroke="none" stroke-width="1px">0.7</text><text style="text-anchor: end; visibility: inherit; font-family: &quot;Helvetica Neue&quot;, sans-serif; font-size: 12px; font-weight: 200;" x="0" y="37.85799989700314" dx="0em" dy="0.3em" fill="rgb(50, 49, 63)" stroke="none" stroke-width="1px">0.8</text><text style="text-anchor: end; visibility: hidden; font-family: &quot;Helvetica Neue&quot;, sans-serif; font-size: 12px; font-weight: 200;" x="0" y="0" dx="0em" dy="0.3em" fill="rgb(50, 49, 63)" stroke="none" stroke-width="1px">0.9</text></g><line x1="49.98400115966797" y1="0" x2="49.98400115966797" y2="378.57999897003174" fill="rgb(0, 0, 0)" stroke="rgb(204, 204, 204)" stroke-width="1px"></line></g></g><g transform="translate(49, 0)" clip-path="url(#clip_0)"><clipPath id="clip_0"><rect width="936" height="378"></rect></clipPath><g><g><g><line x1="0" y1="0" x2="0" y2="378.57999897003174" fill="rgb(0, 0, 0)" stroke="rgb(60, 60, 60)" stroke-width="1px" opacity="0.25"></line><line x1="85.1044544400302" y1="0" x2="85.1044544400302" y2="378.57999897003174" fill="rgb(0, 0, 0)" stroke="rgb(60, 60, 60)" stroke-width="1px" opacity="0.25"></line><line x1="170.2089088800604" y1="0" x2="170.2089088800604" y2="378.57999897003174" fill="rgb(0, 0, 0)" stroke="rgb(60, 60, 60)" stroke-width="1px" opacity="0.25"></line><line x1="255.31336332009056" y1="0" x2="255.31336332009056" y2="378.57999897003174" fill="rgb(0, 0, 0)" stroke="rgb(60, 60, 60)" stroke-width="1px" opacity="0.25"></line><line x1="340.4178177601208" y1="0" x2="340.4178177601208" y2="378.57999897003174" fill="rgb(0, 0, 0)" stroke="rgb(60, 60, 60)" stroke-width="1px" opacity="0.25"></line><line x1="425.52227220015095" y1="0" x2="425.52227220015095" y2="378.57999897003174" fill="rgb(0, 0, 0)" stroke="rgb(60, 60, 60)" stroke-width="1px" opacity="0.25"></line><line x1="510.6267266401811" y1="0" x2="510.6267266401811" y2="378.57999897003174" fill="rgb(0, 0, 0)" stroke="rgb(60, 60, 60)" stroke-width="1px" opacity="0.25"></line><line x1="595.7311810802113" y1="0" x2="595.7311810802113" y2="378.57999897003174" fill="rgb(0, 0, 0)" stroke="rgb(60, 60, 60)" stroke-width="1px" opacity="0.25"></line><line x1="680.8356355202416" y1="0" x2="680.8356355202416" y2="378.57999897003174" fill="rgb(0, 0, 0)" stroke="rgb(60, 60, 60)" stroke-width="1px" opacity="0.25"></line><line x1="765.9400899602717" y1="0" x2="765.9400899602717" y2="378.57999897003174" fill="rgb(0, 0, 0)" stroke="rgb(60, 60, 60)" stroke-width="1px" opacity="0.25"></line><line x1="851.0445444003019" y1="0" x2="851.0445444003019" y2="378.57999897003174" fill="rgb(0, 0, 0)" stroke="rgb(60, 60, 60)" stroke-width="1px" opacity="0.25"></line><line x1="936.1489988403321" y1="0" x2="936.1489988403321" y2="378.57999897003174" fill="rgb(0, 0, 0)" stroke="rgb(60, 60, 60)" stroke-width="1px" opacity="0.25"></line></g><g><line x1="0" y1="378.57999897003174" x2="936.1489988403321" y2="378.57999897003174" fill="rgb(0, 0, 0)" stroke="rgb(60, 60, 60)" stroke-width="1px" opacity="0.25"></line><line x1="0" y1="340.72199907302854" x2="936.1489988403321" y2="340.72199907302854" fill="rgb(0, 0, 0)" stroke="rgb(60, 60, 60)" stroke-width="1px" opacity="0.25"></line><line x1="0" y1="302.8639991760254" x2="936.1489988403321" y2="302.8639991760254" fill="rgb(0, 0, 0)" stroke="rgb(60, 60, 60)" stroke-width="1px" opacity="0.25"></line><line x1="0" y1="265.0059992790222" x2="936.1489988403321" y2="265.0059992790222" fill="rgb(0, 0, 0)" stroke="rgb(60, 60, 60)" stroke-width="1px" opacity="0.25"></line><line x1="0" y1="227.14799938201904" x2="936.1489988403321" y2="227.14799938201904" fill="rgb(0, 0, 0)" stroke="rgb(60, 60, 60)" stroke-width="1px" opacity="0.25"></line><line x1="0" y1="189.28999948501587" x2="936.1489988403321" y2="189.28999948501587" fill="rgb(0, 0, 0)" stroke="rgb(60, 60, 60)" stroke-width="1px" opacity="0.25"></line><line x1="0" y1="151.4319995880127" x2="936.1489988403321" y2="151.4319995880127" fill="rgb(0, 0, 0)" stroke="rgb(60, 60, 60)" stroke-width="1px" opacity="0.25"></line><line x1="0" y1="113.57399969100953" x2="936.1489988403321" y2="113.57399969100953" fill="rgb(0, 0, 0)" stroke="rgb(60, 60, 60)" stroke-width="1px" opacity="0.25"></line><line x1="0" y1="75.7159997940064" x2="936.1489988403321" y2="75.7159997940064" fill="rgb(0, 0, 0)" stroke="rgb(60, 60, 60)" stroke-width="1px" opacity="0.25"></line><line x1="0" y1="37.85799989700314" x2="936.1489988403321" y2="37.85799989700314" fill="rgb(0, 0, 0)" stroke="rgb(60, 60, 60)" stroke-width="1px" opacity="0.25"></line><line x1="0" y1="0" x2="936.1489988403321" y2="0" fill="rgb(0, 0, 0)" stroke="rgb(60, 60, 60)" stroke-width="1px" opacity="0.25"></line></g></g></g><g><g><line x1="0" y1="340.72199907302854" x2="936.1489988403321" y2="340.72199907302854" fill="rgb(0, 0, 0)" stroke="rgb(153, 153, 153)" stroke-width="1.5px"></line></g></g><g><g><line x1="85.1044544400302" y1="0" x2="85.1044544400302" y2="378.57999897003174" fill="rgb(0, 0, 0)" stroke="rgb(153, 153, 153)" stroke-width="1.5px"></line></g></g><g><g><g><g><g><path style="fill: none;" stroke="rgb(51, 187, 238)" stroke-width="2px" d="M85.1044544400302,159.2471941681672L127.65668166004528,181.91167477719654L170.2089088800604,219.79369299469482L212.76113610007548,242.00610386227447L255.31336332009056,256.7806429100895L297.86559054010564,262.8943084959618L340.4178177601208,277.8343288979209L382.97004498013587,236.92672776685103L425.52227220015095,281.6427863053457L468.07449942016603,274.7243298466452L510.6267266401811,272.34628708159676L553.1789538601962,279.67411442139655L595.7311810802113,249.21165078234205L638.2834083002264,262.7886078028209L680.8356355202416,189.18128973227513L723.3878627402565,245.03396021232658L765.9400899602717,253.20969474014242L808.4923171802868,253.48228146654316L851.0445444003019,269.4401921533707L893.596771620317,257.1187249157434" fill="none"></path></g><g><path style="fill: none;" stroke="rgb(204, 51, 17)" stroke-width="2px" d="M85.1044544400302,37.616864443719805L127.65668166004528,144.41939013958486L170.2089088800604,180.73697942926862L212.76113610007548,203.21730604209296L255.31336332009056,233.44087832968034L297.86559054010564,238.64902231866387L340.4178177601208,262.29519310860235L382.97004498013587,265.7358333151154L425.52227220015095,277.37910003878113L468.07449942016603,281.9499428053264L510.6267266401811,295.92632230682165L553.1789538601962,303.12603050044413L595.7311810802113,302.7536043724739L638.2834083002264,306.97511923851675L680.8356355202416,315.8407091680579L723.3878627402565,318.22988500232316L765.9400899602717,327.74337330176826L808.4923171802868,289.97110057631056L851.0445444003019,317.0968759047002L893.596771620317,333.92899202399326" fill="none"></path></g><g><path style="fill: none;" stroke="rgb(0, 153, 136)" stroke-width="2px" d="M85.1044544400302,138.28903200148946L127.65668166004528,202.49998324030878L170.2089088800604,180.4381043306612L212.76113610007548,177.96170582110116L255.31336332009056,165.65588185732136L297.86559054010564,222.3377756007647L340.4178177601208,202.52083341706327L382.97004498013587,240.4582828674592L425.52227220015095,236.0464396225117L468.07449942016603,216.4769240493222L510.6267266401811,247.90294114897588L553.1789538601962,119.48172126640958L595.7311810802113,236.27966148598148L638.2834083002264,239.3719638369111L680.8356355202416,220.25127990953897L723.3878627402565,211.23759505571238L765.9400899602717,230.014984433242L808.4923171802868,219.70303759955286L851.0445444003019,179.4255732633027L893.596771620317,221.2317910625959" fill="none"></path></g><g><path style="fill: none;" stroke="rgb(238, 51, 119)" stroke-width="2px" d="M85.1044544400302,21.89811024859415L127.65668166004528,139.62743734114233L170.2089088800604,172.396694358771L212.76113610007548,184.34346203194744L255.31336332009056,209.13040714361665L297.86559054010564,226.9653188885652L340.4178177601208,229.4864189134398L382.97004498013587,246.69903524497795L425.52227220015095,258.6013778256377L468.07449942016603,270.80280423232375L510.6267266401811,260.02738662709265L553.1789538601962,284.0841242498275L595.7311810802113,285.9149909071102L638.2834083002264,278.986859650484L680.8356355202416,277.12960871920745L723.3878627402565,306.5092847699889L765.9400899602717,304.5323399465889L808.4923171802868,299.74183131623323L851.0445444003019,298.30147109441475L893.596771620317,293.66245626050215" fill="none"></path></g><g><path style="fill: none;" stroke="rgb(0, 119, 187)" stroke-width="2px" d="M85.1044544400302,154.04163388615163L127.65668166004528,201.1563540739041L170.2089088800604,226.49057119512605L212.76113610007548,239.98230537463354L255.31336332009056,266.65179692422623L297.86559054010564,261.3209832670808L340.4178177601208,256.8575899909692L382.97004498013587,218.00881406492897L425.52227220015095,182.43604318349622L468.07449942016603,170.7389360683411L510.6267266401811,261.3937163106132L553.1789538601962,245.52857649952367L595.7311810802113,228.4187612423895L638.2834083002264,267.27394002303373L680.8356355202416,217.13483287340662L723.3878627402565,221.97140820922147L765.9400899602717,229.33182523276335L808.4923171802868,203.3737726282571L851.0445444003019,219.75145107815325L893.596771620317,234.92055264289544" fill="none"></path></g><g><path style="fill: none;" stroke="rgb(255, 112, 67)" stroke-width="2px" d="M85.1044544400302,31.20762390896988L127.65668166004528,144.98751232589208L170.2089088800604,186.44437683891573L212.76113610007548,221.71741514693946L255.31336332009056,239.81099093532606L297.86559054010564,253.12926134724052L340.4178177601208,264.9328532936775L382.97004498013587,288.22315511711065L425.52227220015095,285.9474734065021L468.07449942016603,288.4866537388708L510.6267266401811,309.2571417496317L553.1789538601962,319.069894396114L595.7311810802113,325.0077339277277L638.2834083002264,282.01714175161953L680.8356355202416,316.0910212941028L723.3878627402565,324.2188091593698L765.9400899602717,329.0451892890322L808.4923171802868,334.9215437874426L851.0445444003019,282.7170273520108L893.596771620317,335.396686370593" fill="none"></path></g><g><path style="fill: none;" stroke="rgb(187, 187, 187)" stroke-width="2px" d="M85.1044544400302,160.02596180902333L127.65668166004528,182.7603153318192L170.2089088800604,224.45263565582204L212.76113610007548,225.87588587057976L255.31336332009056,219.81053786152083L297.86559054010564,171.3598042375094L340.4178177601208,228.90849217973016L382.97004498013587,231.94957169382786L425.52227220015095,176.12642768161544L468.07449942016603,248.87342210336683L510.6267266401811,242.28788587766596L553.1789538601962,217.66430099826314L595.7311810802113,234.6093231376072L638.2834083002264,251.5109074087127L680.8356355202416,229.96862438114016L723.3878627402565,235.15471095910905L765.9400899602717,221.34009238654957L808.4923171802868,221.09671621621885L851.0445444003019,173.5559325951439L893.596771620317,88.84040079456253" fill="none"></path></g><g><path style="fill: none;" stroke="rgb(0, 153, 136)" stroke-width="2px" d="M85.1044544400302,63.39235389342929L127.65668166004528,146.3716346115456L170.2089088800604,185.22802626773154L212.76113610007548,208.49876412661257L255.31336332009056,234.6495229102134L297.86559054010564,242.1620401679692L340.4178177601208,260.3209476384429L382.97004498013587,286.54673546718294L425.52227220015095,284.85159804494157L468.07449942016603,296.03486338524283L510.6267266401811,310.9248625433485L553.1789538601962,305.6751479503326L595.7311810802113,308.60187304533116L638.2834083002264,309.3288001290214L680.8356355202416,315.4493339752288L723.3878627402565,324.5549844118465L765.9400899602717,313.322017970422L808.4923171802868,332.10670716632836L851.0445444003019,335.1648744749405L893.596771620317,303.1835292630443" fill="none"></path></g><g><path style="fill: none;" stroke="rgb(238, 51, 119)" stroke-width="2px" d="M85.1044544400302,109.72742640039769L127.65668166004528,79.08125442638374L170.2089088800604,72.35842633064118L212.76113610007548,159.9763862264155L255.31336332009056,200.4282789894105L297.86559054010564,214.0656146467409L340.4178177601208,191.01886951464934L382.97004498013587,210.6805410638836L425.52227220015095,242.17042311241107L468.07449942016603,236.22397075413073L510.6267266401811,168.4106437656297L553.1789538601962,177.3382652275281L595.7311810802113,237.01645799181233L638.2834083002264,234.63205750241255L680.8356355202416,229.5958710588377L723.3878627402565,217.7861978108473L765.9400899602717,246.9010721038214L808.4923171802868,231.35826384018813L851.0445444003019,229.91707434997605L893.596771620317,236.6410307020365" fill="none"></path></g><g><path style="fill: none;" stroke="rgb(51, 187, 238)" stroke-width="2px" d="M85.1044544400302,17.602973837168577L127.65668166004528,83.48901338346047L170.2089088800604,103.19254324208822L212.76113610007548,129.2727747232581L255.31336332009056,157.3835855125394L297.86559054010564,184.7499050879019L340.4178177601208,207.09473939951158L382.97004498013587,224.9141489026524L425.52227220015095,236.82579395665314L468.07449942016603,249.79535982968082L510.6267266401811,265.6508474079708L553.1789538601962,269.4513224019466L595.7311810802113,281.4222460428889L638.2834083002264,291.8048330046408L680.8356355202416,289.3180094067035L723.3878627402565,296.5941315800955L765.9400899602717,305.1586604144133L808.4923171802868,308.8197139545474L851.0445444003019,298.0456079472859L893.596771620317,314.65445201351247" fill="none"></path></g><g><path style="fill: none;" stroke="rgb(204, 51, 17)" stroke-width="2px" d="M85.1044544400302,80.15675347884331L127.65668166004528,103.83145222977947L170.2089088800604,100.33875427675923L212.76113610007548,164.06329165181245L255.31336332009056,187.11602782495197L297.86559054010564,175.9548763084812L340.4178177601208,185.65421380924897L382.97004498013587,209.7389886014832L425.52227220015095,150.72959233475095L468.07449942016603,174.2175872302037L510.6267266401811,202.60357973541687L553.1789538601962,214.42172618835457L595.7311810802113,216.4939832848486L638.2834083002264,207.82487919306692L680.8356355202416,207.6229325947289L723.3878627402565,229.21613382992754L765.9400899602717,214.85181749673188L808.4923171802868,219.49798829634065L851.0445444003019,215.12229438381817L893.596771620317,194.69056533250185" fill="none"></path></g><g><path style="fill: none;" stroke="rgb(0, 119, 187)" stroke-width="2px" d="M85.1044544400302,24.455416018709627L127.65668166004528,87.36737191105976L170.2089088800604,116.48069485159675L212.76113610007548,134.808180739807L255.31336332009056,168.36095535739008L297.86559054010564,180.12853336216023L340.4178177601208,201.44640620810569L382.97004498013587,210.35668637039822L425.52227220015095,224.25710883593277L468.07449942016603,238.6182886165647L510.6267266401811,251.69113507293147L553.1789538601962,252.2911869130348L595.7311810802113,263.4897626915698L638.2834083002264,275.6641504355977L680.8356355202416,276.5719567515302L723.3878627402565,293.43635651503905L765.9400899602717,299.4843180942394L808.4923171802868,304.24961301653116L851.0445444003019,302.28946228842284L893.596771620317,304.06946997153625" fill="none"></path></g><g><path style="fill: none;" stroke="rgb(255, 112, 67)" stroke-width="2px" d="M85.1044544400302,59.452076659104534L127.65668166004528,132.059748349442L170.2089088800604,93.80908366263839L212.76113610007548,158.44714761315578L255.31336332009056,137.61300338093983L297.86559054010564,180.8055999785223L340.4178177601208,129.8011371569231L382.97004498013587,177.90563148210234L425.52227220015095,192.3561578805475L468.07449942016603,209.5082827496023L510.6267266401811,193.72833193179463L553.1789538601962,189.4733727278489L595.7311810802113,213.17008375954697L638.2834083002264,213.43095918536807L680.8356355202416,194.30728537875353L723.3878627402565,214.67498588402995L765.9400899602717,215.7419214710368L808.4923171802868,226.06698992570293L851.0445444003019,160.6129822886551L893.596771620317,229.7965540100997" fill="none"></path></g><g><path style="fill: none;" stroke="rgb(187, 187, 187)" stroke-width="2px" d="M85.1044544400302,-2.687046220621596L127.65668166004528,77.86239912617384L170.2089088800604,110.29333720432186L212.76113610007548,126.25175560649237L255.31336332009056,146.08072500254244L297.86559054010564,158.23134602723414L340.4178177601208,164.1666399305306L382.97004498013587,179.60611683929048L425.52227220015095,189.6262740240485L468.07449942016603,198.47411648170936L510.6267266401811,216.82989903837216L553.1789538601962,214.0265882607053L595.7311810802113,219.82781146574763L638.2834083002264,231.87158661713573L680.8356355202416,242.21083725371767L723.3878627402565,256.3735905957234L765.9400899602717,257.6571062655112L808.4923171802868,265.731359778815L851.0445444003019,268.78244692645234L893.596771620317,274.6998918147999" fill="none"></path></g><g><path style="fill: none;" stroke="rgb(0, 153, 136)" stroke-width="2px" d="M85.1044544400302,82.76925354802967L127.65668166004528,112.06691100578252L170.2089088800604,136.46734935063424L212.76113610007548,173.71589677589347L255.31336332009056,186.7220068710574L297.86559054010564,201.65243709431445L340.4178177601208,135.36100377044372L382.97004498013587,183.20047068655205L425.52227220015095,210.40520139206723L468.07449942016603,152.3688585041307L510.6267266401811,105.11795777880968L553.1789538601962,147.8096649840676L595.7311810802113,160.97650647427727L638.2834083002264,178.35625705546514L680.8356355202416,141.10247452089092L723.3878627402565,120.1151017981432L765.9400899602717,125.26744222964416L808.4923171802868,88.71803011432485L851.0445444003019,57.19389420398642L893.596771620317,110.42098812412723" fill="none"></path></g><g><path style="fill: none;" stroke="rgb(238, 51, 119)" stroke-width="2px" d="M85.1044544400302,12.115631539761523L127.65668166004528,103.36706192933849L170.2089088800604,129.29536241474213L212.76113610007548,173.26436859747636L255.31336332009056,214.9138151813996L297.86559054010564,237.16450778584505L340.4178177601208,265.49343872778127L382.97004498013587,273.3079394303003L425.52227220015095,295.0267381588057L468.07449942016603,300.3392148301448L510.6267266401811,306.6564178557633L553.1789538601962,321.87128431739967L595.7311810802113,298.10678200484153L638.2834083002264,321.00898198908783L680.8356355202416,328.5605820456951L723.3878627402565,330.94338957820605L765.9400899602717,335.7497519727285L808.4923171802868,338.62474263717104L851.0445444003019,326.2240097519308L893.596771620317,280.1887572582361" fill="none"></path></g><g><path style="fill: none;" stroke="rgb(51, 187, 238)" stroke-width="2px" d="M85.1044544400302,5.918187281004748L127.65668166004528,36.17696116571011L170.2089088800604,138.15501771605122L212.76113610007548,166.7834837865408L255.31336332009056,170.4582258964516L297.86559054010564,187.08841939285335L340.4178177601208,175.85076081546688L382.97004498013587,158.74941876328003L425.52227220015095,202.31199317262298L468.07449942016603,183.94478137946L510.6267266401811,187.64969306331102L553.1789538601962,185.79189492772034L595.7311810802113,185.67764769297142L638.2834083002264,131.11079452559628L680.8356355202416,133.6141696437169L723.3878627402565,142.09904076135135L765.9400899602717,163.91967590510902L808.4923171802868,71.6087451376601L851.0445444003019,67.45306120712496L893.596771620317,116.3640105832012" fill="none"></path></g><g><path style="fill: none;" stroke="rgb(204, 51, 17)" stroke-width="2px" d="M85.1044544400302,-18.03435587077354L127.65668166004528,26.6246918759785L170.2089088800604,104.74130068964735L212.76113610007548,147.73709553770132L255.31336332009056,158.97706704053945L297.86559054010564,173.62147300464977L340.4178177601208,198.70461924745302L382.97004498013587,205.3858034025025L425.52227220015095,221.1963976619039L468.07449942016603,224.97303259988277L510.6267266401811,235.2086416111039L553.1789538601962,254.61593649090807L595.7311810802113,256.4440163550857L638.2834083002264,265.81686468386584L680.8356355202416,282.39333061440993L723.3878627402565,287.35015550858486L765.9400899602717,277.54833284518213L808.4923171802868,301.7555319098291L851.0445444003019,300.2808050005679L893.596771620317,302.60280163302554" fill="none"></path></g><g><path style="fill: none;" stroke="rgb(0, 119, 187)" stroke-width="2px" d="M85.1044544400302,110.85112456275726L127.65668166004528,154.03256270535584L170.2089088800604,171.40183178535057L212.76113610007548,166.78902352506162L255.31336332009056,197.29072227757055L297.86559054010564,177.70820919159902L340.4178177601208,124.1640526810065L382.97004498013587,158.6853450869874L425.52227220015095,165.07645454270894L468.07449942016603,114.92367856779072L510.6267266401811,159.2485255106223L553.1789538601962,112.718704680624L595.7311810802113,42.21511819750805L638.2834083002264,74.62042229211374L680.8356355202416,138.7881500313949L723.3878627402565,92.08255814963348L765.9400899602717,81.93626190853604L808.4923171802868,150.66541711538972L851.0445444003019,127.29735586652802L893.596771620317,104.02668570302609" fill="none"></path></g><g><path style="fill: none;" stroke="rgb(255, 112, 67)" stroke-width="2px" d="M85.1044544400302,50.18329305180441L127.65668166004528,108.63008430562388L170.2089088800604,141.03671974268465L212.76113610007548,174.2312278490869L255.31336332009056,208.59926919940966L297.86559054010564,241.45162229485047L340.4178177601208,265.1273139113464L382.97004498013587,275.3350549915158L425.52227220015095,293.96916991987814L468.07449942016603,301.35180231031916L510.6267266401811,313.1735337977069L553.1789538601962,321.21701694058123L595.7311810802113,311.0955649036036L638.2834083002264,302.3791135354419L680.8356355202416,327.540701798746L723.3878627402565,333.8188699764066L765.9400899602717,335.91238906321115L808.4923171802868,295.8286406954601L851.0445444003019,333.97943213300465L893.596771620317,338.12054392803407" fill="none"></path></g></g></g></g></g><g><g opacity="0.407559"><span fill="rgb(0, 0, 0)" stroke="none" stroke-width="1px">Alt + Scroll to Zoom</span></g></g></g><g transform="translate(49, 378)" clip-path="url(#clip_1)"><clipPath id="clip_1"><rect width="936" height="21"></rect></clipPath><g><g><line x1="0" y1="0" x2="0" y2="5" style="visibility: inherit;" fill="rgb(0, 0, 0)" stroke="rgb(204, 204, 204)" stroke-width="1px"></line><line x1="85.1044544400302" y1="0" x2="85.1044544400302" y2="5" style="visibility: inherit;" fill="rgb(0, 0, 0)" stroke="rgb(204, 204, 204)" stroke-width="1px"></line><line x1="170.2089088800604" y1="0" x2="170.2089088800604" y2="5" style="visibility: inherit;" fill="rgb(0, 0, 0)" stroke="rgb(204, 204, 204)" stroke-width="1px"></line><line x1="255.31336332009056" y1="0" x2="255.31336332009056" y2="5" style="visibility: inherit;" fill="rgb(0, 0, 0)" stroke="rgb(204, 204, 204)" stroke-width="1px"></line><line x1="340.4178177601208" y1="0" x2="340.4178177601208" y2="5" style="visibility: inherit;" fill="rgb(0, 0, 0)" stroke="rgb(204, 204, 204)" stroke-width="1px"></line><line x1="425.52227220015095" y1="0" x2="425.52227220015095" y2="5" style="visibility: inherit;" fill="rgb(0, 0, 0)" stroke="rgb(204, 204, 204)" stroke-width="1px"></line><line x1="510.6267266401811" y1="0" x2="510.6267266401811" y2="5" style="visibility: inherit;" fill="rgb(0, 0, 0)" stroke="rgb(204, 204, 204)" stroke-width="1px"></line><line x1="595.7311810802113" y1="0" x2="595.7311810802113" y2="5" style="visibility: inherit;" fill="rgb(0, 0, 0)" stroke="rgb(204, 204, 204)" stroke-width="1px"></line><line x1="680.8356355202416" y1="0" x2="680.8356355202416" y2="5" style="visibility: inherit;" fill="rgb(0, 0, 0)" stroke="rgb(204, 204, 204)" stroke-width="1px"></line><line x1="765.9400899602717" y1="0" x2="765.9400899602717" y2="5" style="visibility: inherit;" fill="rgb(0, 0, 0)" stroke="rgb(204, 204, 204)" stroke-width="1px"></line><line x1="851.0445444003019" y1="0" x2="851.0445444003019" y2="5" style="visibility: inherit;" fill="rgb(0, 0, 0)" stroke="rgb(204, 204, 204)" stroke-width="1px"></line><line x1="936.1489988403321" y1="0" x2="936.1489988403321" y2="5" style="visibility: inherit;" fill="rgb(0, 0, 0)" stroke="rgb(204, 204, 204)" stroke-width="1px"></line></g><g transform="translate(0, 8)"><text style="text-anchor: middle; visibility: hidden; font-family: &quot;Helvetica Neue&quot;, sans-serif; font-size: 12px; font-weight: 200;" x="0" y="0" dx="0em" dy="0.95em" fill="rgb(50, 49, 63)" stroke="none" stroke-width="1px">-2</text><text style="text-anchor: middle; visibility: inherit; font-family: &quot;Helvetica Neue&quot;, sans-serif; font-size: 12px; font-weight: 200;" x="85.1044544400302" y="0" dx="0em" dy="0.95em" fill="rgb(50, 49, 63)" stroke="none" stroke-width="1px">0</text><text style="text-anchor: middle; visibility: inherit; font-family: &quot;Helvetica Neue&quot;, sans-serif; font-size: 12px; font-weight: 200;" x="170.2089088800604" y="0" dx="0em" dy="0.95em" fill="rgb(50, 49, 63)" stroke="none" stroke-width="1px">2</text><text style="text-anchor: middle; visibility: inherit; font-family: &quot;Helvetica Neue&quot;, sans-serif; font-size: 12px; font-weight: 200;" x="255.31336332009056" y="0" dx="0em" dy="0.95em" fill="rgb(50, 49, 63)" stroke="none" stroke-width="1px">4</text><text style="text-anchor: middle; visibility: inherit; font-family: &quot;Helvetica Neue&quot;, sans-serif; font-size: 12px; font-weight: 200;" x="340.4178177601208" y="0" dx="0em" dy="0.95em" fill="rgb(50, 49, 63)" stroke="none" stroke-width="1px">6</text><text style="text-anchor: middle; visibility: inherit; font-family: &quot;Helvetica Neue&quot;, sans-serif; font-size: 12px; font-weight: 200;" x="425.52227220015095" y="0" dx="0em" dy="0.95em" fill="rgb(50, 49, 63)" stroke="none" stroke-width="1px">8</text><text style="text-anchor: middle; visibility: inherit; font-family: &quot;Helvetica Neue&quot;, sans-serif; font-size: 12px; font-weight: 200;" x="510.6267266401811" y="0" dx="0em" dy="0.95em" fill="rgb(50, 49, 63)" stroke="none" stroke-width="1px">10</text><text style="text-anchor: middle; visibility: inherit; font-family: &quot;Helvetica Neue&quot;, sans-serif; font-size: 12px; font-weight: 200;" x="595.7311810802113" y="0" dx="0em" dy="0.95em" fill="rgb(50, 49, 63)" stroke="none" stroke-width="1px">12</text><text style="text-anchor: middle; visibility: inherit; font-family: &quot;Helvetica Neue&quot;, sans-serif; font-size: 12px; font-weight: 200;" x="680.8356355202416" y="0" dx="0em" dy="0.95em" fill="rgb(50, 49, 63)" stroke="none" stroke-width="1px">14</text><text style="text-anchor: middle; visibility: inherit; font-family: &quot;Helvetica Neue&quot;, sans-serif; font-size: 12px; font-weight: 200;" x="765.9400899602717" y="0" dx="0em" dy="0.95em" fill="rgb(50, 49, 63)" stroke="none" stroke-width="1px">16</text><text style="text-anchor: middle; visibility: inherit; font-family: &quot;Helvetica Neue&quot;, sans-serif; font-size: 12px; font-weight: 200;" x="851.0445444003019" y="0" dx="0em" dy="0.95em" fill="rgb(50, 49, 63)" stroke="none" stroke-width="1px">18</text><text style="text-anchor: middle; visibility: hidden; font-family: &quot;Helvetica Neue&quot;, sans-serif; font-size: 12px; font-weight: 200;" x="936.1489988403321" y="0" dx="0em" dy="0.95em" fill="rgb(50, 49, 63)" stroke="none" stroke-width="1px">20</text></g><line x1="0" y1="0" x2="936.1489988403321" y2="0" fill="rgb(0, 0, 0)" stroke="rgb(204, 204, 204)" stroke-width="1px"></line></g></g></g></g></svg>